<?xml version="1.0" encoding="UTF-8" standalone="no"?>
<svg width="60px" height="44px" viewBox="0 0 60 44" version="1.1" xmlns="http://www.w3.org/2000/svg" xmlns:xlink="http://www.w3.org/1999/xlink">
    <!-- Generator: Sketch 39.1 (31720) - http://www.bohemiancoding.com/sketch -->
    <title>MemoryIcon</title>
    <desc>Created with Sketch.</desc>
    <defs>
        <rect id="path-1" x="0" y="0" width="60" height="34.8" rx="2"></rect>
        <mask id="mask-2" maskContentUnits="userSpaceOnUse" maskUnits="objectBoundingBox" x="0" y="0" width="60" height="34.8" fill="white">
            <use xlink:href="#path-1"></use>
        </mask>
        <rect id="path-3" x="4.8" y="8.4" width="10.8" height="18" rx="2"></rect>
        <mask id="mask-4" maskContentUnits="userSpaceOnUse" maskUnits="objectBoundingBox" x="0" y="0" width="10.8" height="18" fill="white">
            <use xlink:href="#path-3"></use>
        </mask>
        <rect id="path-5" x="18" y="8.4" width="10.8" height="18" rx="2"></rect>
        <mask id="mask-6" maskContentUnits="userSpaceOnUse" maskUnits="objectBoundingBox" x="0" y="0" width="10.8" height="18" fill="white">
            <use xlink:href="#path-5"></use>
        </mask>
        <rect id="path-7" x="31.2" y="8.4" width="10.8" height="18" rx="2"></rect>
        <mask id="mask-8" maskContentUnits="userSpaceOnUse" maskUnits="objectBoundingBox" x="0" y="0" width="10.8" height="18" fill="white">
            <use xlink:href="#path-7"></use>
        </mask>
        <rect id="path-9" x="44.4" y="8.4" width="10.8" height="18" rx="2"></rect>
        <mask id="mask-10" maskContentUnits="userSpaceOnUse" maskUnits="objectBoundingBox" x="0" y="0" width="10.8" height="18" fill="white">
            <use xlink:href="#path-9"></use>
        </mask>
        <path d="M32.3756952,43.2 L55.6027919,43.2 C56.7105819,43.2 57.6,42.3086542 57.6,41.2091234 L57.6,34.9908766 C57.6,33.905182 56.7058195,33 55.6027919,33 L4.39720812,33 C3.28941806,33 2.4,33.8913458 2.4,34.9908766 L2.4,41.2091234 C2.4,42.294818 3.29418053,43.2 4.39720812,43.2 L27.6243048,43.2 C27.6082875,43.0040382 27.6,42.8037128 27.6,42.6 C27.6,40.2804041 28.6745166,38.4 30,38.4 C31.3254834,38.4 32.4,40.2804041 32.4,42.6 C32.4,42.8037128 32.3917125,43.0040382 32.3756952,43.2 Z" id="path-11"></path>
        <mask id="mask-12" maskContentUnits="userSpaceOnUse" maskUnits="objectBoundingBox" x="0" y="0" width="55.2" height="10.2" fill="white">
            <use xlink:href="#path-11"></use>
        </mask>
    </defs>
    <g id="Memory-Icon" stroke="none" stroke-width="1" fill="none" fill-rule="evenodd">
        <g id="MemoryIcon" stroke="#4A4A4A">
            <use id="Rectangle-2" mask="url(#mask-2)" stroke-width="8" xlink:href="#path-1"></use>
            <use id="Rectangle-3" mask="url(#mask-4)" stroke-width="8" xlink:href="#path-3"></use>
            <use id="Rectangle-3-Copy" mask="url(#mask-6)" stroke-width="8" xlink:href="#path-5"></use>
            <use id="Rectangle-3-Copy-2" mask="url(#mask-8)" stroke-width="8" xlink:href="#path-7"></use>
            <use id="Rectangle-3-Copy-3" mask="url(#mask-10)" stroke-width="8" xlink:href="#path-9"></use>
            <use id="Combined-Shape" mask="url(#mask-12)" stroke-width="8" xlink:href="#path-11"></use>
            <path d="M8.4,37.5 L8.4,35.1" id="Line" stroke-width="4" stroke-linecap="square"></path>
            <path d="M37.2,37.5 L37.2,35.1" id="Line-Copy-4" stroke-width="4" stroke-linecap="square"></path>
            <path d="M13.2,37.5 L13.2,35.1" id="Line-Copy" stroke-width="4" stroke-linecap="square"></path>
            <path d="M42,37.5 L42,35.1" id="Line-Copy-5" stroke-width="4" stroke-linecap="square"></path>
            <path d="M18,37.5 L18,35.1" id="Line-Copy-2" stroke-width="4" stroke-linecap="square"></path>
            <path d="M46.8,37.5 L46.8,35.1" id="Line-Copy-6" stroke-width="4" stroke-linecap="square"></path>
            <path d="M22.8,37.5 L22.8,35.1" id="Line-Copy-3" stroke-width="4" stroke-linecap="square"></path>
            <path d="M51.6,37.5 L51.6,35.1" id="Line-Copy-7" stroke-width="4" stroke-linecap="square"></path>
        </g>
    </g>
</svg>